<?xml version="1.0" encoding="UTF-8"?>
<svg id="Capa_1" data-name="Capa 1" xmlns="http://www.w3.org/2000/svg" viewBox="0 0 2293.32 1633.14">
  <defs>
    <style>
      .cls-1 {
        fill: #fff;
      }
    </style>
  </defs>
  <path class="cls-1" d="M1657.74,1317.07c-.15,0-2.14,1.99-2.14,2.14v86.47c-71.65-34.76-138.87,12.48-149.73,86.86-11,75.34,26.32,136.57,105.41,140.4,3.97.19,8.97.32,12.87,0,16.37-1.34,46.86-9.36,59.92-19.42,1.38-1.06,8.7-7.85,8.7-8.45v-284.43c0-.47-1.89-2.17-1.43-3.57h-33.6ZM1655.26,1589.01c-3.27,18.04-37.52,18.99-51.48,16.41-80.1-14.8-79.14-174.03.04-183.62,18.01-2.18,39.99.04,51.79,14.6l-.35,152.61Z"/>
  <path class="cls-1" d="M219.79,1457.45c-23.06,70.87-3.33,171.3,86.19,175.5,3.26.15,6.75.15,10.01,0,89.8-4.21,109.85-105.59,85.83-176.57-29.28-86.51-154.13-84.67-182.03,1.08ZM327.47,1605.12c-49.65,12.34-71.27-25.17-74.37-68.67-2.79-39.18-2.68-110.62,48.25-117.53,48.14-6.53,63.34,28.03,67.52,68.97,3.71,36.37,2.96,106.21-41.4,117.23Z"/>
  <path class="cls-1" d="M622.27,1449.62c-27.7,70.01-9.17,179.07,82.58,183.33,3.26.15,6.75.16,10.01,0,92.56-4.42,112.81-111.61,84.01-183.33-30.71-76.47-146.56-75.92-176.6,0ZM705.75,1607.03c-43.44-3.26-51.79-44.37-53.78-80.58-2.02-36.93,1.29-101.16,48.25-107.53,48.81-6.62,66.13,29.48,68.96,71.83,3.08,46.25.93,121.12-63.43,116.28Z"/>
  <path class="cls-1" d="M1218.37,1396.65c-45.8,11.45-67.36,52.05-70.37,96.88-4.48,66.7,14.98,135.79,92.99,139.42,3.26.15,6.75.15,10.01,0,88.59-4.18,107.07-100.77,86.8-171.83-15.63-54.79-65-78.08-119.43-64.47ZM1262.48,1605.12c-49.61,12.33-71.16-25.22-74.37-68.67-2.88-38.96-2.27-110.67,48.25-117.53,39.83-5.41,59.92,18.4,65.71,55.05,6.02,38.06,8.22,119.26-39.59,131.15Z"/>
  <path class="cls-1" d="M2293.23,1272.76c-4.86-89.85-140.17-87.32-140.2,3.57-.03,90.59,135.35,93.21,140.2,3.57.13-2.32.13-4.83,0-7.15ZM2223.05,1335.39c-32.42,0-58.7-26.27-58.7-58.68s26.28-58.68,58.7-58.68,58.7,26.27,58.7,58.68-26.28,58.68-58.7,58.68Z"/>
  <path class="cls-1" d="M173.29,1430.43c-14.05-35.8-64.87-39.43-97.78-37.19-15.15,1.03-56.52,7.4-67.63,16.72-4.97,4.16-5.83,10.3-6.47,16.4,3.49,60.56-4.46,125.94-.01,185.93.32,4.27.23,12.59,5.05,13.53,3.55.69,24.98.65,28.58-.05,4.32-.84,5.15-4.37,6.13-8.17l.63-185.18c12.36-16.77,44.07-18.35,62.96-14.94,31.5,5.69,34.12,28.47,35.45,56.04,2.36,48.83-2.12,99.41.23,148.42.79,2.34,2.41,3.38,4.76,3.82,3.07.58,27.6.58,29.79-.16,3.02-1.02,3.58-7.52,3.83-10.47,3.42-41.53,1.9-103.54,0-145.91-.52-11.62-1.35-28.21-5.51-38.8Z"/>
  <path class="cls-1" d="M954.68,1404.6c-3.81,1.48-16.78,7.67-16.78,11.81v207.97c0,1.8,32.47,2.21,35.72.69.68-.32,2.88-2.59,2.88-2.84v-188.67c0-2.83,7.52-8.39,10.17-9.84,19.64-10.73,63.12-11.53,78.43,7.02,4.92,5.97,10.05,19.57,10.05,27.12v164.37c0,.25,3.32,3.57,3.57,3.57h31.45c.15,0,2.14-1.99,2.14-2.14v-175.81c0-9-8.53-26.99-14.95-33.65-28.9-30.01-106.81-23.59-142.69-9.6Z"/>
  <path class="cls-1" d="M518.98,1570.05l-63.6-171.52h-35.74c-2.44,0-2.87,7.9-1.45,10.03l80.07,211.52c2.31,8.66,27.53,8.35,31.03,1l78.22-214.81.12-7.74h-27.88l-60.78,171.52Z"/>
  <path class="cls-1" d="M1875.89,1479.17c-28.92-22.57-12.76-59.42,22.28-60.07,18.91-.35,22.59,7.86,36.66,14.01,23.47,10.24,35.62-14.5,14.32-28.61-14.67-9.72-42.26-11.43-59.38-9.82-41.69,3.93-69.74,33.7-61.97,76.83,9.63,53.47,93.55,50.3,104.74,88.24,9.93,33.66-29.05,53.29-58.27,45.4-15.01-4.05-42.03-33.84-54.3-14.4-10.88,17.25,16.99,31.48,30.11,35.72,54.26,17.53,130.45-6.51,116.79-75.31-9.2-46.35-60.97-48.55-90.99-71.98Z"/>
  <path class="cls-1" d="M2033.71,1315.68c-4.16-.8-29.78-.57-31.79,1.75-1.01,1.18-1.02,4.54-1.6,6.22l-.24,292.93c.07,3.81.73,8.44,5.07,9.22,3.93.71,24.68.7,28.56-.04,1.68-.32,4.65-2.12,5.04-3.54v-303.02c0-1.07-3.47-3.24-5.04-3.54Z"/>
  <path class="cls-1" d="M1419,1394.27c-10.05,1.28-42.3,6.88-45.06,17.84v210.11c0,.15,1.99,2.14,2.14,2.14h32.88c.25,0,3.57-3.32,3.57-3.57v-191.53c0-11.69,20.08-16.01,29.32-15.01,20.34,2.2,27.94,25.93,49.39,19.37,9.55-2.92,12.33-18.2,7.07-25.8-11.98-17.33-60.37-15.96-79.32-13.56Z"/>
  <path class="cls-1" d="M2086.04,1503.77c21.28-17.6,41.56-37.04,57.63-59.65,5.41-7.61,21.4-31.49,21.99-39.54.09-1.21-.81-5.85-1.1-6.04-1.52-1-31.3,0-36.46,0-1.97,0-13.57,29.03-16.2,33.83-14.95,27.38-38.81,53.43-65.57,69.49l-1.53,4.33,81.57,117.75c3.81,3.05,43.67,2.61,45.15.25.93-1.5.23-5.16-.59-6.91l-84.89-113.51Z"/>
  <rect class="cls-1" x="1745.66" y="1398.47" width="37.17" height="227.33"/>
  <path class="cls-1" d="M1764.55,1312.99c-12.85,0-23.28,10.42-23.28,23.27s10.42,23.27,23.28,23.27,23.28-10.42,23.28-23.27-10.42-23.27-23.28-23.27Z"/>
  <path class="cls-1" d="M2231.76,1280.61c14.09-1.95,23.72-14.08,18.27-28.28-3.71-9.66-13.76-12.94-23.28-13.88-10.67-1.04-22.77.77-33.6,0v75.75h12.87v-31.44c11.97-.8,16.11-.65,23.2,8.96,2.66,3.61,11.04,20.88,12.52,21.78,3.17,1.92,10.44.11,14.31.68-6.94-11.87-13.13-25.16-24.3-33.58ZM2205.93,1272.13c-2.12-1.47-2.72-22.24,1.01-23.48,6.25-2.07,27.88.09,30.24,7.96,5.16,17.19-20.3,17.56-31.24,15.52Z"/>
  <path class="cls-1" d="M1423.81,915.9c.56-1.89-.96-3.96,2.31-3.34,65.77,93.75,34.58,219.54-10.46,315.43-6.21,13.23-26.68,45.38-25.68,57.93.48,6.02,4.14,11.48,10.5,12.48,23.38-1.92,51.51,2.85,74.3.11,9.22-1.11,11.89-5.8,15-13.59,9.13-22.82,10.98-54.45,22.12-76.51,9.89-19.58,51.52-6.88,69.68-13.24,4.57-1.6,7.38-3.97,8.16-8.99-.53-131.94,2.22-264.26-2.83-395.78-1.74-45.21-1.31-93.7-10.65-138-32.22-152.85-184.86-106.98-297.39-97.19-165.36,14.39-309.12-1.93-464.28-60.39-19.69-7.42-50.86-18.56-68.31-28.9-3.61-2.14-8.4-4.69-6.92-9.76,1.04-3.55,42.25-25.19,49.17-29.56,25.81-16.32,52.24-36.97,67.6-63.91,4.76-8.36,9.95-17.58,8.86-27.6-12.99-1.37-21.82,10.72-31.86,17.47-119.38,80.28-256.96,41.43-318.22-86.99-2.38-4.98-18.08-52.79-23.87-24.89-8.89,42.82,12.71,107.74,37.37,142.89,7.83,11.16,25.72,24.88,17.57,40.68-7.6,14.73-32.27,32.03-35.45,50.32-2.57,14.82-.27,20.95-8.95,35.36-9.07,15.05-39.8,43.18-39.77,58.86.02,10.42,7.16,19.25,12.9,27.12,11.43,15.67,26.05,35.36,46.58,37.76,24.6,2.87,36.98-2.97,60.22,12.69,31.29,21.08,60.43,99.58,80.74,135.11,25.43,44.49,59.03,69.41,64.03,123.23,9.36,100.72-31.73,208.45-76.44,296.6-10.81,21.31-26.53,44.4-35.75,65.74-4.44,10.28-11.04,29.5,5.66,31.45,27.35,3.2,60.69-2.48,88.7,0,19.42-4.28,15.8-27.22,17.85-42.18,11.9-86.65,39.68-200.59,81.23-277.55,3.81-7.06,25-42.41,32.17-41.72,4.14.4,30.5,21.92,35.29,26.22,74.94,67.22,96.74,161.08,87.18,258.71-1.89,19.35-8.38,40.16-9.97,58.62-1.16,13.42,1.03,18.13,14.93,19.35,18.54,1.63,55.98,1.74,74.39-.07,12.86-1.27,22.09-6.74,22.28-20.7.35-26.03-12.14-67.99-19.1-93.94-13.7-51.1-31.49-101.15-44.94-152.32-11.18-42.57-26.76-85.84-1.58-126.55,29.15-47.13,90.03-45.07,137.3-32.01,17.28,4.78,34.09,12.06,50.46,19.22,46.46-43.59,119.47-36.84,120.25,38.5.37,36.01-22.51,94.04-37.81,127.22-28.88,62.63-72.95,115.04-118.18,166.28-12.75,14.44-29.95,29.26-41.36,44.41-8.45,11.22-13.21,26.33,5.6,28.46,20.05,2.28,65.31,1.82,85.83.05,5.96-.51,13.43-2.19,17.82-6.48,6.55-6.41,17.18-43.86,21.8-55.39,28.09-70.05,70.17-149.81,124.7-202.64,8.26-8,20.26-15.78,27.95-23.52,13.84-13.93,24.87-73,31.24-94.6ZM1509.77,863.26c2.63-31.61,6.94-68.64,11.45-100.04.55-3.83,1.15-14.07,5.18-14.82,11.87-2.19,17.93,41.46,18.92,49.28,6.57,52.16,3.88,110.28,1.55,162.7-.84,19.01-.29,41.01-3.18,59.71-1.28,8.31-8.36,17.24-12.09,5.7-7.62-55.81-26.58-105.48-21.84-162.54ZM1377.3,578.26c22.21,29.75,31.96,87.63-17.64,94.19-1.54-20.99-4.37-41.53-12.61-61.01-4.07-9.61-10.32-18.12-14.55-27.61l44.8-5.57ZM1130.13,596.75l103.79-.86c7.93,24.15,13.19,88.85-5.94,107.14-9.16,8.76-35.13,13.62-47.78,15.12-28.87,3.43-86.28,4.47-114.01-1.75-16.79-3.77-19-23.14-20.89-37.72-3.76-28.99-3.21-59.89-4.48-89.16l89.3,7.21ZM855.1,679.05c11.45-41,18.51-83.09,24.2-125.25l62.9,17.17c-6.82,33.62-20.85,102.35-53.88,119.79-13.06,6.9-35.14,8.55-33.22-11.72ZM569.39,604.2c-13.67-1.74-39.2,2.59-49.9-6.58-2.63-2.26-16.74-19.29-17.35-21.97-.51-2.22-.55-4.47-.23-6.73,1.62-11.46,28.29-36.82,34.09-50.3,3.93-9.15,2.75-18.77,5.08-27.8,3.84-14.86,37.15-56.12,52.19-59.32,14.31-3.05,27.14,3.06,39.65,9.12,20.93,10.14,41.94,24.75,62.4,36.23,11.66,6.55,54.05,25.52,59.58,33.34,3.19,4.51,3.42,7.01,2.52,12.52-2.13,13.14-34.08,56.35-42.8,71.57-21.84,38.1-40.99,79.93-46.95,123.88-29.91-36.75-42.85-106.93-98.28-113.98ZM1128.7,809.6c-81.81,3.86-162.25,26.83-185.82,114.39-1.39,5.16-3.92,25.07-5.69,27.18-5.71,6.82-18.94-12.21-23.58-16.46-82.96-76.07-248.6-111.09-198.8-260.17,12.34-36.95,52.62-106.75,78.73-135.69,8.65-9.59,10.89-8.92,23.13-6.06,4.14.97,30.31,9.66,31.05,11.94-1.46,17.52-3.12,34.88-6.06,52.23-4.04,23.8-25.55,87.6-21.79,105.59,2.27,10.84,12.8,18.53,23.04,21.27,13.69,3.66,32.38,2.76,46.07-.94,56.3-15.22,75.04-94.62,81.81-144.76l40.03,5.71c1.38,33.25.74,67.73,4.29,100.76,3.95,36.68,10.45,58.32,50.76,63.6,41.99,5.5,127.75,5.36,166.52-10.73,55.28-22.94,39.58-98.44,31.48-145.04,10.33,1.57,26.76-5.36,36.16-2.57,7.49,2.22,21.87,34.65,24.25,42.92,4.63,16.08,3.71,27.5,5.5,43.1,4.34,37.82,47.66,23.22,67.71,6.54,34.08-28.34,25.53-71.29,9.33-107.14,28.48-4.09,60.4,2.71,71.16,32.47,6.08,16.8,4.98,32.66,4.63,49.72-1.1,53.15-5.98,112.47-20.75,163.64-3.26,11.3-12.27,41.14-24.96,43.76-10.55,2.18-44.98-17.96-57.29-22.99-76.01-31.04-169.31-36.11-250.92-32.26Z"/>
  <path class="cls-1" d="M711.26,344.71c95.21,0,172.4-77.17,172.4-172.35S806.47,0,711.26,0s-172.4,77.17-172.4,172.35,77.18,172.35,172.4,172.35ZM716.06,40.06c63.16,0,114.35,51.18,114.35,114.32s-51.2,114.32-114.35,114.32-114.35-51.18-114.35-114.32,51.2-114.32,114.35-114.32Z"/>
  <path class="cls-1" d="M567.26,509.14c.71,1.73,5.14,6.46,6.77,7.51,20.14,13.05,49.53-26.04,44.98-31.39-3.69-4.34-62.2-1.57-51.75,23.87Z"/>
</svg>